<svg id="Calque_1" data-name="Calque 1" xmlns="http://www.w3.org/2000/svg" viewBox="0 0 599.54 219.67"><defs><style>.cls-1,.cls-2{fill:#17639e;}.cls-1{fill-rule:evenodd;}.cls-3{font-size:76.69px;fill:#fff;font-family:Cocogoose;}.cls-4{letter-spacing:-0.03em;}.cls-5{letter-spacing:-0.02em;}.cls-6{letter-spacing:0.02em;}.cls-7{letter-spacing:-0.03em;}.cls-8{letter-spacing:0em;}</style></defs><path class="cls-1" d="M567.72,478.76V400.09a64.1,64.1,0,0,1,14.88-41.56c9.6-11.26,23-18.24,37.77-18.24s28.16,7,37.77,18.24A64.1,64.1,0,0,1,673,400.09V433l-37,1.78.41-34.72a23.55,23.55,0,0,0-5.31-15.31,13.43,13.43,0,0,0-21.54,0,23.55,23.55,0,0,0-5.31,15.31v78.67Z" transform="translate(-141.8 -340.29)"/><path class="cls-1" d="M704.91,469.7a36,36,0,0,0-.14-4.25c-.37-4-1.07-10.34-5.31-15.3a13.43,13.43,0,0,0-21.54,0,23.54,23.54,0,0,0-5.31,15.3v8.19l-35.58-3-1-5.2a64.14,64.14,0,0,1,14.88-41.56c9.6-11.25,23-18.24,37.77-18.24,20.45,0,33.68,13.56,37.77,18.24,15.42,17.64,14.7,39.22,14.5,43.14Z" transform="translate(-141.8 -340.29)"/><rect class="cls-2" x="425.91" y="102.95" width="36.6" height="54.32" rx="18.3"/><path class="cls-1" d="M654.34,492c-10.11,0-18.3-8.75-18.3-19.55V433.2c0-10.8,8.19-19.55,18.3-19.55s18.29,8.75,18.29,19.55v39.28C672.63,483.28,664.44,492,654.34,492Z" transform="translate(-141.8 -340.29)"/><path class="cls-1" d="M723.54,492h-1c-9.84,0-17.81-8.51-17.81-19V456.74c0-10.5,8-19,17.81-19h1a16.16,16.16,0,0,1,12.59,5.57,18.73,18.73,0,0,1,4.19,13.62l1,16.1C741.34,483.52,733.37,492,723.54,492Z" transform="translate(-141.8 -340.29)"/><text class="cls-3" transform="translate(57.49 75.37) scale(1.01 1)"><tspan class="cls-4">M</tspan><tspan x="71.24" y="0">a</tspan><tspan class="cls-5" x="130.56" y="0">r</tspan><tspan x="173.54" y="0">den</tspan></text><path class="cls-1" d="M651.23,351.71l76.92,74.22c-23.67,13.65-49.17,16.11-63.5,4.68-10.41-8.31-12.79-22.26-15.1-35.75A105.84,105.84,0,0,1,651.23,351.71Z" transform="translate(-141.8 -340.29)"/><text class="cls-3" transform="translate(0 147) scale(1.01 1)">Sof<tspan class="cls-6" x="140.03" y="0">t</tspan><tspan class="cls-7" x="174.72" y="0">w</tspan><tspan x="246.35" y="0">a</tspan><tspan class="cls-5" x="305.67" y="0">r</tspan><tspan class="cls-8" x="348.65" y="0">e</tspan></text></svg>